<?xml version="1.0" standalone="no"?>
<!DOCTYPE svg PUBLIC "-//W3C//DTD SVG 20010904//EN"
 "http://www.w3.org/TR/2001/REC-SVG-20010904/DTD/svg10.dtd">
<svg version="1.0" xmlns="http://www.w3.org/2000/svg"
 width="260.000000pt" height="260.000000pt" viewBox="0 0 260.000000 260.000000"
 preserveAspectRatio="xMidYMid meet">
<metadata>
Created by potrace 1.11, written by Peter Selinger 2001-2013
</metadata>
<g transform="translate(0.000000,260.000000) scale(0.100000,-0.100000)"
fill="#000000" stroke="none">
<path d="M1047 2580 c-324 -69 -603 -246 -790 -501 -56 -76 -127 -197 -127
-215 0 -6 49 -10 120 -9 66 1 124 -1 128 -5 12 -8 32 -54 112 -255 39 -99 78
-193 85 -210 7 -16 39 -94 71 -173 l57 -143 39 98 c48 119 52 129 71 173 9 19
30 71 47 115 18 44 40 98 49 120 10 22 36 85 57 140 59 155 37 141 226 139 90
-1 168 -2 174 -3 14 -1 24 -45 17 -72 -5 -18 -27 -25 -103 -33 -19 -2 -37 -4
-40 -5 -5 -1 -5 -66 -1 -92 1 -4 214 -7 474 -7 471 0 523 -4 603 -37 43 -18
96 -71 114 -114 21 -52 17 -138 -9 -189 -21 -40 -102 -111 -128 -112 -19 0
-16 -8 20 -50 17 -21 58 -89 91 -152 90 -174 108 -179 146 -43 34 122 48 241
45 379 -4 161 -6 178 -39 309 -91 358 -334 658 -677 836 -46 24 -235 96 -262
100 -4 0 -17 3 -30 6 -12 3 -35 8 -52 11 -16 4 -113 8 -215 10 -152 2 -201 0
-273 -16z"/>
<path d="M71 1723 c-23 -56 -43 -140 -59 -243 -14 -87 -7 -331 12 -420 24
-117 23 -110 39 -155 14 -41 21 -45 72 -35 l30 6 1 429 c1 303 -2 432 -10 437
-6 4 -25 8 -42 8 -25 0 -34 -6 -43 -27z"/>
<path d="M1043 1603 c-5 -15 -204 -513 -306 -766 -17 -44 -38 -82 -47 -87 -29
-15 -55 7 -79 66 -12 33 -27 68 -32 79 -4 11 -45 110 -89 220 -45 110 -97 236
-115 280 -18 44 -46 110 -60 148 -15 37 -28 67 -29 67 -3 0 1 -730 4 -734 3
-2 32 -7 65 -10 33 -4 64 -11 68 -15 5 -5 7 -26 5 -47 l-3 -39 -153 -5 -153
-5 32 -60 c61 -116 125 -201 229 -306 191 -192 403 -308 671 -365 117 -25 381
-25 497 0 298 63 570 224 740 435 21 25 40 48 43 51 23 20 149 230 149 249 0
4 -30 7 -67 7 l-68 -1 -75 152 c-79 161 -103 194 -160 222 -65 32 -65 33 -65
-134 l0 -150 57 -5 c62 -6 63 -6 72 -35 15 -51 33 -49 -635 -52 -448 -2 -626
0 -636 8 -14 12 -17 57 -5 76 4 7 39 15 77 18 38 3 72 8 75 11 5 6 7 744 2
744 -1 0 -5 -8 -9 -17z"/>
<path d="M1346 1532 c-3 -10 -8 -38 -11 -63 -9 -63 -17 -72 -62 -73 l-38 -1 0
-252 c0 -139 2 -253 5 -253 3 0 14 15 25 33 10 17 21 34 25 37 3 3 56 77 118
165 61 88 115 165 120 170 22 28 172 244 172 248 0 3 -79 5 -175 5 -154 0
-175 -2 -179 -16z"/>
<path d="M1785 1405 c-55 -80 -108 -155 -117 -167 -53 -71 -266 -373 -264
-376 3 -2 242 -4 348 -2 40 0 43 4 53 80 8 57 19 70 59 70 l32 0 -1 270 c0
149 -2 270 -5 269 -3 0 -50 -65 -105 -144z"/>
<path d="M2048 1543 c-4 -7 -3 -245 1 -287 1 -16 110 -14 151 3 74 31 98 92
76 189 -8 34 -53 74 -96 86 -45 12 -128 18 -132 9z"/>
</g>
</svg>
